# xmcd CD database file
#
# Track frame offsets:
#	150
#	30326
#	70870
#	102214
#	129318
#	151131
#	177260
#	207378
#	221833
#	246737
#	256558
#	272907
#
# Disc length: 4097 seconds
#
# Revision: 0
# Processed by: cddbd v1.5.2PL0 Copyright (c) Steve Scherf et al.
# Submitted via: CDex 1.70beta2
#
DISCID=a90fff0c
DTITLE=Paul Bollenback - Brightness of Being
DYEAR=2005
DGENRE=Jazz
TTITLE0=Together
TTITLE1=Unchain my heart
TTITLE2=Don't you worry 'bout a thing
TTITLE3=Breathe
TTITLE4=You don't know me
TTITLE5=7 am special
TTITLE6=El desierto
TTITLE7=Dark eyes of Floria Tosca, part 1
TTITLE8=Dark eyes of Floria Tosca, part 2
TTITLE9=Dark eyes of Floria Tosca, part 3
TTITLE10=Philadelphia
TTITLE11=Siberian passages
EXTD=YEAR: 2005
EXTT0=
EXTT1=
EXTT2=
EXTT3=
EXTT4=
EXTT5=
EXTT6=
EXTT7=
EXTT8=
EXTT9=
EXTT10=
EXTT11=
PLAYORDER=
